<?xml version="1.0" encoding="UTF-8" standalone="no"?>
<!DOCTYPE svg PUBLIC "-//W3C//DTD SVG 1.1//EN" "http://www.w3.org/Graphics/SVG/1.1/DTD/svg11.dtd">
<svg xmlns="http://www.w3.org/2000/svg" version="1.1" viewBox="0.00 0.00 154.00 187.00">
<path fill="#f76f72" d="
  M 144.32 75.73
  A 67.22 67.22 0.0 0 1 77.10 142.95
  A 67.22 67.22 0.0 0 1 9.88 75.73
  A 67.22 67.22 0.0 0 1 77.10 8.51
  A 67.22 67.22 0.0 0 1 144.32 75.73
  Z
  M 141.39 75.73
  A 64.30 64.30 0.0 0 0 77.09 11.43
  A 64.30 64.30 0.0 0 0 12.79 75.73
  A 64.30 64.30 0.0 0 0 77.09 140.03
  A 64.30 64.30 0.0 0 0 141.39 75.73
  Z"
/>
<path fill="#f76f72" d="
  M 57.25 39.45
  L 57.25 37.22
  A 0.47 0.47 0.0 0 1 57.72 36.75
  L 73.84 36.75
  A 0.47 0.47 0.0 0 1 74.25 37.46
  L 72.93 39.74
  A 0.47 0.47 0.0 0 1 72.52 39.98
  L 57.72 39.92
  A 0.47 0.47 0.0 0 1 57.25 39.45
  Z"
/>
<path fill="#f76f72" d="
  M 99.02 42.09
  Q 99.76 42.18 100.15 41.54
  L 102.59 37.65
  A 1.52 1.52 0.0 0 1 105.21 39.20
  L 102.90 43.32
  A 1.02 1.00 46.7 0 0 102.88 44.28
  C 104.93 48.26 106.73 50.37 103.76 54.84
  Q 103.48 55.25 102.99 55.25
  L 88.00 55.25
  Q 87.47 55.25 87.56 54.73
  C 88.68 48.15 90.33 41.12 99.02 42.09
  Z
  M 100.18 45.43
  C 97.46 44.10 92.18 44.54 92.23 48.41
  A 1.16 1.16 0.0 0 0 94.34 49.07
  Q 96.14 46.55 99.18 47.92
  A 0.74 0.74 0.0 0 0 100.19 47.47
  L 100.55 46.30
  A 0.73 0.72 22.3 0 0 100.18 45.43
  Z"
/>
<path fill="#f76f72" d="
  M 117.19 43.50
  Q 118.44 43.46 119.59 43.99
  A 1.41 1.41 0.0 0 1 118.51 46.59
  Q 116.18 45.74 113.82 46.28
  A 0.50 0.50 0.0 0 0 113.48 46.97
  Q 115.25 50.71 112.84 54.00
  Q 112.50 54.47 111.93 54.34
  L 108.25 53.52
  A 0.68 0.67 12.6 0 1 107.74 52.72
  Q 108.73 48.17 106.34 44.23
  Q 106.00 43.67 106.65 43.55
  Q 108.73 43.18 110.52 44.14
  A 0.71 0.71 0.0 0 0 111.57 43.46
  L 111.26 38.66
  A 1.24 1.24 0.0 0 1 113.68 38.23
  L 114.42 40.78
  A 0.34 0.34 0.0 0 0 115.00 40.90
  Q 115.60 40.17 116.38 39.59
  A 1.39 1.39 0.0 0 1 118.19 41.68
  L 116.95 42.93
  Q 116.35 43.52 117.19 43.50
  Z"
/>
<path fill="#f76f72" d="
  M 85.52 46.79
  C 85.66 43.32 82.90 42.20 80.37 40.75
  Q 79.71 40.37 80.44 40.17
  Q 85.27 38.85 89.49 41.43
  A 0.46 0.45 -52.7 0 1 89.58 42.13
  C 85.97 46.02 85.72 50.44 84.44 55.09
  A 0.47 0.47 0.0 0 1 83.80 55.40
  Q 83.60 55.32 83.48 55.15
  Q 83.38 55.01 83.43 54.75
  Q 84.30 49.76 81.14 45.95
  Q 80.81 45.54 81.24 45.25
  Q 81.56 45.03 81.78 45.20
  Q 83.40 46.44 84.84 47.19
  Q 85.50 47.52 85.52 46.79
  Z"
/>
<path fill="#f76f72" d="
  M 74.89 42.05
  A 0.53 0.53 0.0 0 1 75.80 42.05
  C 78.19 46.18 81.06 49.59 80.73 54.61
  Q 80.69 55.25 80.05 55.25
  L 70.55 55.25
  Q 70.16 55.25 70.12 54.87
  C 69.48 49.68 72.34 46.37 74.89 42.05
  Z"
/>
<path fill="#f76f72" d="
  M 57.15 93.51
  C 51.24 93.50 50.99 102.02 56.85 102.50
  Q 57.35 102.54 57.59 102.10
  C 60.97 95.88 69.22 96.16 72.68 102.12
  Q 72.91 102.52 73.37 102.52
  L 88.34 102.52
  Q 88.90 102.52 89.20 102.04
  C 93.53 95.15 103.72 96.58 105.21 104.56
  C 107.08 114.57 92.62 118.97 88.45 108.25
  Q 88.26 107.75 87.72 107.75
  L 74.00 107.75
  Q 73.45 107.75 73.29 108.28
  C 70.83 116.37 60.33 116.68 57.18 109.06
  C 56.38 107.10 55.74 107.89 54.22 107.35
  C 45.48 104.22 44.88 93.13 53.37 89.08
  A 0.72 0.70 -19.6 0 0 53.76 88.28
  L 43.98 47.78
  Q 43.86 47.31 43.38 47.29
  C 40.83 47.16 34.99 48.46 34.99 44.42
  A 2.40 2.39 -0.6 0 1 37.34 42.03
  C 41.58 41.95 47.24 40.69 48.74 46.32
  Q 50.24 51.99 51.77 57.66
  Q 51.92 58.22 52.50 58.22
  L 112.24 58.26
  A 2.39 2.39 0.0 0 1 114.53 61.35
  Q 111.03 72.81 107.46 84.18
  C 105.36 90.85 102.75 93.46 95.80 93.48
  Q 76.48 93.52 57.15 93.51
  Z
  M 66.59 70.25
  A 0.59 0.59 0.0 0 0 67.18 69.67
  L 67.28 63.85
  A 0.59 0.59 0.0 0 0 66.69 63.25
  L 53.82 63.25
  A 0.59 0.59 0.0 0 0 53.25 63.97
  L 54.61 69.79
  A 0.59 0.59 0.0 0 0 55.19 70.25
  L 66.59 70.25
  Z
  M 79.0499 63.8441
  A 0.60 0.60 0.0 0 0 78.4478 63.2462
  L 70.5078 63.2739
  A 0.60 0.60 0.0 0 0 69.9099 63.8760
  L 69.9301 69.6559
  A 0.60 0.60 0.0 0 0 70.5322 70.2538
  L 78.4722 70.2261
  A 0.60 0.60 0.0 0 0 79.0701 69.6240
  L 79.0499 63.8441
  Z
  M 91.0397 63.7940
  A 0.55 0.55 0.0 0 0 90.4878 63.2460
  L 82.4278 63.2741
  A 0.55 0.55 0.0 0 0 81.8798 63.8260
  L 81.9003 69.7060
  A 0.55 0.55 0.0 0 0 82.4522 70.2540
  L 90.5122 70.2259
  A 0.55 0.55 0.0 0 0 91.0602 69.6740
  L 91.0397 63.7940
  Z
  M 108.30 63.95
  A 0.54 0.54 0.0 0 0 107.78 63.25
  L 94.28 63.25
  A 0.54 0.54 0.0 0 0 93.74 63.79
  L 93.76 69.71
  A 0.54 0.54 0.0 0 0 94.30 70.25
  L 105.92 70.25
  A 0.54 0.54 0.0 0 0 106.44 69.87
  L 108.30 63.95
  Z
  M 67.16 74.41
  Q 67.39 73.95 67.23 73.50
  A 0.78 0.77 79.5 0 0 66.51 73.00
  L 55.96 73.00
  Q 55.41 73.00 55.54 73.53
  L 56.60 77.98
  Q 56.72 78.50 57.25 78.50
  L 66.57 78.50
  A 0.74 0.74 0.0 0 0 67.31 77.67
  L 67.01 75.17
  Q 66.97 74.77 67.16 74.41
  Z
  M 79.1323 73.4041
  A 0.37 0.37 0.0 0 0 78.7643 73.0321
  L 70.3244 72.9879
  A 0.37 0.37 0.0 0 0 69.9525 73.3560
  L 69.9277 78.0959
  A 0.37 0.37 0.0 0 0 70.2957 78.4679
  L 78.7356 78.5121
  A 0.37 0.37 0.0 0 0 79.1075 78.1440
  L 79.1323 73.4041
  Z
  M 91.09 73.37
  A 0.36 0.36 0.0 0 0 90.73 73.01
  L 82.25 73.01
  A 0.36 0.36 0.0 0 0 81.89 73.37
  L 81.89 78.13
  A 0.36 0.36 0.0 0 0 82.25 78.49
  L 90.73 78.49
  A 0.36 0.36 0.0 0 0 91.09 78.13
  L 91.09 73.37
  Z
  M 93.87 77.00
  Q 93.62 77.49 93.77 77.99
  Q 93.92 78.50 94.46 78.50
  L 103.23 78.50
  Q 103.76 78.50 103.93 77.99
  L 105.35 73.58
  Q 105.54 73.00 104.93 73.00
  L 94.30 73.00
  A 0.62 0.62 0.0 0 0 93.69 73.71
  L 94.04 76.03
  Q 94.11 76.54 93.87 77.00
  Z
  M 66.63 88.25
  A 0.44 0.44 0.0 0 0 67.07 87.81
  L 67.09 81.70
  A 0.44 0.44 0.0 0 0 66.65 81.26
  L 57.93 81.25
  A 0.44 0.44 0.0 0 0 57.51 81.80
  L 59.05 87.92
  A 0.44 0.44 0.0 0 0 59.47 88.25
  L 66.63 88.25
  Z
  M 79.0812 81.5459
  A 0.28 0.28 0.0 0 0 78.8022 81.2649
  L 70.2622 81.2351
  A 0.28 0.28 0.0 0 0 69.9813 81.5141
  L 69.9588 87.9541
  A 0.28 0.28 0.0 0 0 70.2378 88.2351
  L 78.7778 88.2649
  A 0.28 0.28 0.0 0 0 79.0587 87.9859
  L 79.0812 81.5459
  Z
  M 91.0455 81.6079
  A 0.34 0.34 0.0 0 0 90.7061 81.2674
  L 82.2861 81.2527
  A 0.34 0.34 0.0 0 0 81.9455 81.5921
  L 81.9345 87.8921
  A 0.34 0.34 0.0 0 0 82.2739 88.2326
  L 90.6939 88.2473
  A 0.34 0.34 0.0 0 0 91.0345 87.9079
  L 91.0455 81.6079
  Z
  M 93.89 87.41
  Q 93.87 88.12 94.58 88.21
  Q 102.06 89.16 102.58 81.83
  Q 102.62 81.25 102.03 81.25
  L 94.53 81.25
  Q 94.06 81.25 94.05 81.72
  L 93.89 87.41
  Z
  M 68.57 106.07
  A 3.43 3.43 0.0 0 0 65.14 102.64
  A 3.43 3.43 0.0 0 0 61.71 106.07
  A 3.43 3.43 0.0 0 0 65.14 109.50
  A 3.43 3.43 0.0 0 0 68.57 106.07
  Z
  M 100.21 106.06
  A 3.44 3.44 0.0 0 0 96.77 102.62
  A 3.44 3.44 0.0 0 0 93.33 106.06
  A 3.44 3.44 0.0 0 0 96.77 109.50
  A 3.44 3.44 0.0 0 0 100.21 106.06
  Z"
/>
<path fill="#f76f72" d="
  M 56.56 42.75
  L 70.65 42.75
  A 0.33 0.33 0.0 0 1 70.94 43.24
  L 67.64 49.08
  A 0.33 0.33 0.0 0 1 67.36 49.25
  L 53.16 49.25
  A 0.33 0.33 0.0 0 1 52.88 48.75
  L 56.27 42.91
  A 0.33 0.33 0.0 0 1 56.56 42.75
  Z"
/>
<path fill="#f76f72" d="
  M 53.41 52.37
  A 0.37 0.37 0.0 0 1 53.78 51.99
  L 66.29 51.93
  A 0.96 0.70 -0.3 0 1 67.25 52.62
  L 67.26 54.54
  A 0.96 0.70 -0.3 0 1 66.31 55.25
  L 53.80 55.31
  A 0.37 0.37 0.0 0 1 53.43 54.95
  L 53.41 52.37
  Z"
/>
<path fill="#f76f72" d="
  M 27.29 175.09
  C 26.66 179.26 22.02 179.81 18.76 178.69
  Q 18.33 178.55 18.32 178.10
  L 18.06 156.90
  A 0.75 0.75 0.0 0 1 18.86 156.14
  L 25.05 156.53
  A 0.85 0.81 -13.2 0 1 25.70 156.91
  Q 28.78 161.77 25.92 166.41
  Q 25.65 166.85 26.00 167.22
  C 27.90 169.28 27.68 172.47 27.29 175.09
  Z
  M 21.20 159.52
  L 21.24 165.26
  A 0.51 0.51 0.0 0 0 21.75 165.77
  L 22.42 165.76
  A 1.74 1.62 89.6 0 0 24.03 164.01
  L 24.01 160.73
  A 1.74 1.62 89.6 0 0 22.38 159.00
  L 21.71 159.01
  A 0.51 0.51 0.0 0 0 21.20 159.52
  Z
  M 21.20 168.78
  L 21.26 175.76
  A 0.27 0.27 0.0 0 0 21.53 176.03
  L 23.10 176.02
  A 1.78 1.44 89.5 0 0 24.53 174.23
  L 24.49 170.27
  A 1.78 1.44 89.5 0 0 23.04 168.50
  L 21.47 168.51
  A 0.27 0.27 0.0 0 0 21.20 168.78
  Z"
/>
<path fill="#f76f72" d="
  M 33.56 176.25
  L 37.45 176.25
  A 0.55 0.55 0.0 0 1 38.00 176.80
  L 38.00 178.39
  A 0.55 0.55 0.0 0 1 37.47 178.94
  L 30.51 179.15
  A 0.55 0.55 0.0 0 1 29.94 178.61
  L 29.73 156.81
  A 0.55 0.55 0.0 0 1 30.28 156.25
  L 37.20 156.25
  A 0.55 0.55 0.0 0 1 37.75 156.80
  L 37.75 158.45
  A 0.55 0.55 0.0 0 1 37.20 159.00
  L 33.55 159.00
  A 0.55 0.55 0.0 0 0 33.00 159.55
  L 33.00 165.52
  A 0.55 0.55 0.0 0 0 33.57 166.07
  L 36.20 165.97
  A 0.55 0.55 0.0 0 1 36.77 166.54
  L 36.72 168.21
  A 0.55 0.55 0.0 0 1 36.17 168.75
  L 33.54 168.75
  A 0.55 0.55 0.0 0 0 32.99 169.30
  L 33.01 175.70
  A 0.55 0.55 0.0 0 0 33.56 176.25
  Z"
/>
<path fill="#f76f72" d="
  M 42.82 163.61
  A 0.25 0.25 0.0 0 0 42.33 163.69
  L 42.80 178.20
  A 0.60 0.60 0.0 0 1 42.27 178.82
  L 40.51 179.03
  A 0.63 0.63 0.0 0 1 39.81 178.42
  L 39.27 157.00
  Q 39.25 156.25 40.00 156.25
  L 42.79 156.25
  Q 43.35 156.25 43.48 156.79
  L 46.60 169.44
  A 0.21 0.20 38.5 0 0 47.00 169.40
  L 47.00 157.30
  A 1.33 1.33 0.0 0 1 49.59 156.89
  C 50.27 158.97 49.72 161.51 49.73 163.30
  Q 49.78 170.66 50.10 178.14
  Q 50.13 178.69 49.61 178.87
  C 47.53 179.62 46.75 179.00 46.27 176.98
  Q 44.65 170.13 42.82 163.61
  Z"
/>
<path fill="#f76f72" d="
  M 55.73 160.53
  Q 55.17 167.03 55.68 174.90
  A 1.59 1.59 0.0 0 0 57.16 176.38
  Q 58.54 176.47 58.58 174.99
  Q 58.65 172.16 58.88 169.34
  Q 58.92 168.76 58.37 168.58
  L 57.47 168.29
  A 0.59 0.59 0.0 0 1 57.05 167.66
  L 57.21 166.25
  A 0.57 0.56 -86.6 0 1 57.77 165.75
  L 61.24 165.75
  Q 61.82 165.75 61.86 166.33
  C 62.22 171.53 63.38 180.14 56.48 179.25
  C 50.43 178.47 52.27 167.65 52.30 161.75
  C 52.33 154.49 61.69 154.28 61.92 161.57
  Q 61.94 162.25 61.26 162.25
  L 59.46 162.25
  Q 58.91 162.25 58.80 161.70
  L 58.55 160.38
  A 1.43 1.42 -48.0 0 0 55.73 160.53
  Z"
/>
<path fill="#f76f72" d="
  M 70.91 174.26
  A 1.85 1.85 0.0 0 0 67.22 174.00
  L 66.63 178.33
  Q 66.55 178.90 65.98 178.93
  L 64.12 179.02
  Q 63.49 179.06 63.59 178.44
  L 66.75 156.83
  Q 66.84 156.25 67.42 156.25
  L 70.85 156.25
  Q 71.45 156.25 71.53 156.84
  L 74.39 178.26
  Q 74.49 178.99 73.75 178.99
  L 72.29 178.99
  Q 71.74 178.99 71.56 178.47
  Q 70.89 176.63 70.91 174.26
  Z
  M 68.80 162.29
  L 67.81 170.00
  Q 67.75 170.50 68.25 170.50
  L 69.75 170.50
  Q 70.44 170.50 70.35 169.82
  L 69.40 162.29
  Q 69.10 159.93 68.80 162.29
  Z"
/>
<path fill="#f76f72" d="
  M 80.16 176.25
  L 83.90 176.25
  A 0.60 0.60 0.0 0 1 84.50 176.85
  L 84.50 178.40
  A 0.60 0.60 0.0 0 1 83.90 179.00
  L 76.85 178.99
  A 0.60 0.60 0.0 0 1 76.25 178.39
  L 76.25 156.85
  A 0.60 0.60 0.0 0 1 76.85 156.25
  L 78.74 156.25
  A 0.60 0.60 0.0 0 1 79.34 156.84
  L 79.56 175.66
  A 0.60 0.60 0.0 0 0 80.16 176.25
  Z"
/>
<path fill="#f76f72" d="
  M 96.56 176.39
  A 1.43 1.43 0.0 0 0 98.20 175.27
  C 98.65 173.09 94.55 167.27 93.30 165.25
  C 87.55 156.02 100.79 152.71 101.16 160.75
  A 1.82 1.39 -56.7 0 1 98.10 161.82
  L 97.94 160.27
  Q 97.89 159.78 97.54 159.44
  Q 96.64 158.58 95.19 159.42
  A 1.65 1.65 0.0 0 0 94.56 161.61
  C 97.27 166.79 103.63 172.64 99.35 178.58
  A 1.02 1.02 0.0 0 1 98.76 178.98
  Q 92.73 180.52 91.64 174.58
  A 1.60 1.59 89.7 0 1 93.48 172.72
  L 94.59 172.91
  A 0.61 0.61 0.0 0 1 95.07 173.68
  Q 94.40 176.03 96.56 176.39
  Z"
/>
<path fill="#f76f72" d="
  M 107.25 165.50
  L 109.25 165.50
  Q 110.00 165.50 110.00 164.75
  L 110.00 157.02
  Q 110.00 156.59 110.39 156.42
  C 112.14 155.63 113.22 156.39 113.22 158.27
  Q 113.23 168.32 113.12 178.33
  Q 113.11 179.02 112.42 179.01
  L 110.64 178.98
  Q 110.00 178.97 110.00 178.33
  L 110.00 169.25
  Q 110.00 168.75 109.50 168.75
  L 107.25 168.75
  Q 106.75 168.75 106.75 169.25
  L 106.75 178.18
  A 0.70 0.70 0.0 0 1 106.10 178.88
  L 104.18 179.04
  Q 103.52 179.09 103.52 178.43
  L 103.50 156.87
  A 0.63 0.62 -89.6 0 1 104.13 156.24
  L 106.07 156.27
  A 0.68 0.68 0.0 0 1 106.74 156.95
  L 106.75 165.00
  Q 106.75 165.50 107.25 165.50
  Z"
/>
<path fill="#f76f72" d="
  M 125.4667 174.8205
  A 4.33 4.33 0.0 0 1 121.1900 179.2030
  L 120.1900 179.2153
  A 4.33 4.33 0.0 0 1 115.8075 174.9385
  L 115.6333 160.6795
  A 4.33 4.33 0.0 0 1 119.9100 156.2970
  L 120.9100 156.2847
  A 4.33 4.33 0.0 0 1 125.2925 160.5615
  L 125.4667 174.8205
  Z
  M 122.0676 160.2689
  A 1.25 1.25 0.0 0 0 120.7939 159.0431
  L 119.9140 159.0600
  A 1.25 1.25 0.0 0 0 118.6883 160.3338
  L 118.9724 175.1311
  A 1.25 1.25 0.0 0 0 120.2461 176.3569
  L 121.1260 176.3400
  A 1.25 1.25 0.0 0 0 122.3517 175.0662
  L 122.0676 160.2689
  Z"
/>
<path fill="#f76f72" d="
  M 131.76 169.58
  A 0.43 0.43 0.0 0 0 131.26 170.00
  L 131.22 178.42
  A 0.83 0.83 0.0 0 1 130.39 179.25
  L 128.66 179.25
  Q 128.07 179.25 128.07 178.66
  L 128.04 157.20
  Q 128.04 156.33 128.91 156.27
  C 132.05 156.09 136.88 155.54 137.34 160.07
  C 137.75 164.19 138.20 170.58 131.76 169.58
  Z
  M 131.01 159.74
  L 131.23 166.10
  A 0.72 0.72 0.0 0 0 131.98 166.79
  L 132.48 166.77
  A 2.62 2.18 88.0 0 0 134.56 164.08
  L 134.47 161.52
  A 2.62 2.18 88.0 0 0 132.20 158.98
  L 131.70 159.00
  A 0.72 0.72 0.0 0 0 131.01 159.74
  Z"
/>
</svg>
