<?xml version="1.0" encoding="UTF-8" standalone="no"?>
<!DOCTYPE svg PUBLIC "-//W3C//DTD SVG 1.1//EN" "http://www.w3.org/Graphics/SVG/1.1/DTD/svg11.dtd">
<svg xmlns="http://www.w3.org/2000/svg" version="1.1" viewBox="0.00 0.00 1200.00 1200.00">
<g stroke-width="2.00" fill="none" stroke-linecap="butt">
<path stroke="#e99e8d" vector-effect="non-scaling-stroke" d="
  M 369.20 723.29
  C 371.92 719.20 375.44 715.90 377.20 710.82
  C 379.28 704.83 383.31 686.08 377.55 681.37
  C 365.54 671.56 352.90 676.87 345.15 688.52
  Q 344.82 689.00 344.44 688.57
  L 341.83 685.64
  Q 341.48 685.25 340.97 685.19
  C 337.14 684.73 334.94 683.62 331.03 684.70
  A 2.41 2.40 87.0 0 0 329.30 686.63
  C 325.51 709.67 329.02 735.13 334.35 757.68
  C 335.93 764.36 339.27 773.19 345.49 777.55
  Q 349.26 780.18 354.07 779.84
  C 367.21 778.90 378.50 769.75 382.99 757.82
  Q 385.73 750.55 386.22 747.24
  C 386.67 744.23 386.44 735.91 384.26 732.29
  C 380.81 726.57 376.97 723.07 369.69 724.06
  A 0.50 0.50 0.0 0 1 369.20 723.29"
/>
<path stroke="#e99e8d" vector-effect="non-scaling-stroke" d="
  M 690.14 703.06
  L 688.29 700.87
  Q 687.96 700.48 687.46 700.59
  C 681.10 701.90 687.01 711.49 694.05 706.95
  Q 699.47 703.45 699.97 696.25
  Q 700.91 682.78 688.28 679.47
  Q 680.49 677.43 674.57 681.59
  Q 659.46 692.19 661.82 711.53
  C 663.53 725.55 671.13 738.56 676.78 751.10
  Q 682.02 762.74 682.93 766.56
  C 684.62 773.71 677.40 782.20 669.81 779.21
  Q 659.41 775.10 659.22 763.46
  C 659.17 760.78 659.42 753.39 662.86 752.88
  Q 663.34 752.81 663.57 753.24
  C 665.62 757.07 662.93 763.71 666.18 766.30
  C 668.57 768.20 670.33 767.11 671.74 764.79
  C 674.38 760.44 673.65 755.02 671.02 751.08
  C 668.33 747.06 660.82 745.23 657.25 748.96
  C 648.05 758.59 650.68 773.34 660.49 781.20
  C 666.55 786.05 677.45 785.55 684.55 784.02
  C 695.65 781.64 701.87 769.46 700.96 759.30
  C 699.49 742.77 691.25 727.69 682.02 710.45
  C 679.62 705.98 676.28 695.29 677.95 690.31
  Q 680.05 684.02 688.93 685.67
  C 694.61 686.73 697.00 700.77 690.95 703.26
  Q 690.48 703.45 690.14 703.06"
/>
<path stroke="#e99e8d" vector-effect="non-scaling-stroke" d="
  M 566.37 750.00
  A 0.33 0.32 -36.6 0 1 566.99 750.09
  C 567.93 757.97 571.68 769.74 582.50 766.26
  C 588.64 764.29 591.67 758.27 594.25 752.83
  Q 594.54 752.21 594.79 752.85
  C 597.23 759.06 605.24 772.77 613.94 769.47
  C 617.67 768.06 624.05 759.76 625.75 755.45
  Q 631.21 741.65 636.58 727.74
  A 0.25 0.25 0.0 0 0 636.16 727.48
  C 633.17 730.73 630.15 733.30 628.24 737.45
  C 626.37 741.49 619.70 758.67 614.99 759.29
  Q 614.41 759.37 614.01 758.96
  C 609.33 754.26 606.86 740.79 606.25 735.50
  Q 606.19 734.96 606.43 734.48
  C 608.39 730.52 610.26 726.89 611.37 722.56
  Q 613.33 714.90 615.10 707.20
  C 615.93 703.57 615.86 699.24 616.75 695.26
  C 617.75 690.82 617.02 677.56 608.04 679.25
  C 589.63 682.72 590.63 729.85 592.24 742.91
  C 592.81 747.53 588.17 754.22 585.51 757.96
  A 1.98 1.98 0.0 0 1 582.94 758.53
  C 578.93 756.31 581.49 731.27 580.18 724.76
  C 579.37 720.78 575.13 719.34 571.72 718.36
  A 0.74 0.74 0.0 0 0 570.81 718.83
  L 567.93 727.04
  A 0.50 0.50 0.0 0 1 567.00 727.09
  C 561.43 715.08 546.43 722.98 541.25 730.26
  C 535.63 738.16 533.22 751.78 540.32 760.09
  Q 542.57 762.72 545.28 763.62
  C 555.27 766.94 562.84 757.96 566.37 750.00"
/>
<path stroke="#e99e8d" vector-effect="non-scaling-stroke" d="
  M 763.43 745.43
  C 763.97 752.45 766.99 761.53 774.55 763.97
  C 792.98 769.91 797.00 754.93 800.67 741.63
  A 0.80 0.79 7.6 0 1 801.44 741.05
  Q 804.45 741.04 806.98 739.54
  Q 807.46 739.25 807.44 739.81
  Q 806.91 753.97 805.07 768.01
  C 804.11 775.34 804.39 784.77 804.17 789.84
  Q 803.57 803.44 802.33 816.98
  A 1.80 1.80 0.0 0 0 804.15 818.95
  L 807.68 818.90
  Q 808.07 818.90 808.39 818.66
  Q 810.10 817.42 812.04 817.63
  A 1.54 1.50 -55.8 0 0 812.93 817.45
  L 819.17 814.07
  Q 819.67 813.80 819.89 813.27
  C 821.38 809.72 822.79 806.29 822.95 802.30
  Q 823.62 786.06 822.73 769.76
  A 0.58 0.58 0.0 0 1 823.25 769.15
  C 840.94 766.99 856.99 763.47 866.73 746.86
  C 869.98 741.33 873.99 734.70 875.69 728.52
  Q 875.94 727.61 875.30 728.31
  Q 872.94 730.87 870.57 733.40
  C 866.02 738.26 861.89 745.73 858.73 749.47
  Q 856.05 752.65 849.95 756.03
  Q 849.27 756.40 849.59 755.70
  C 854.07 745.88 857.77 733.46 851.77 724.03
  C 849.24 720.07 841.44 716.67 836.88 717.90
  C 826.61 720.66 823.93 727.56 819.72 736.33
  A 0.38 0.38 0.0 0 1 819.00 736.13
  Q 819.27 733.36 817.98 730.89
  Q 817.72 730.40 817.74 729.85
  Q 817.82 726.21 814.16 725.54
  Q 813.62 725.44 813.15 725.72
  Q 811.72 726.58 809.97 726.65
  A 1.28 1.28 0.0 0 0 808.75 727.76
  L 808.04 733.58
  Q 807.97 734.14 807.54 734.51
  Q 804.86 736.81 801.34 737.04
  Q 800.68 737.09 800.60 736.43
  C 799.40 726.15 799.87 720.33 788.35 716.56
  C 779.93 713.80 770.54 720.85 767.16 727.95
  C 763.34 735.98 758.74 743.99 756.06 749.32
  Q 754.11 753.18 751.45 755.71
  A 0.71 0.70 -47.3 0 1 750.52 755.75
  Q 749.11 754.60 749.18 752.74
  C 749.52 743.64 750.58 732.00 744.43 725.14
  C 743.47 724.08 741.04 722.72 739.93 722.80
  C 731.41 723.37 727.06 728.57 722.68 734.67
  A 0.38 0.37 62.1 0 1 722.00 734.46
  L 721.58 719.19
  Q 721.56 718.64 721.93 718.22
  Q 730.76 708.11 730.90 694.49
  C 730.95 688.98 728.82 679.65 721.81 679.21
  C 720.00 679.10 718.47 680.08 716.75 680.72
  C 707.82 684.01 706.80 708.46 706.24 714.11
  A 0.37 0.37 0.0 0 1 705.58 714.31
  L 703.65 711.85
  A 1.33 1.33 0.0 0 0 701.60 711.80
  C 699.10 714.70 702.80 717.48 705.67 719.07
  Q 706.16 719.34 706.21 719.89
  Q 706.29 720.67 706.25 721.75
  C 705.71 736.28 704.78 754.86 707.63 770.19
  A 1.46 1.46 0.0 0 0 708.64 771.32
  Q 716.63 773.78 722.10 767.98
  Q 722.47 767.59 722.52 767.05
  C 723.19 759.99 721.36 752.11 722.01 747.26
  C 722.19 745.97 727.01 730.95 731.25 733.08
  Q 731.75 733.33 731.95 733.86
  C 734.69 741.12 734.33 749.45 735.75 758.00
  C 736.73 763.94 739.51 768.88 746.36 767.14
  C 754.65 765.04 760.41 752.70 762.97 745.37
  A 0.24 0.24 0.0 0 1 763.43 745.43"
/>
<path stroke="#e99e8d" vector-effect="non-scaling-stroke" d="
  M 429.42 750.79
  C 429.02 756.69 427.77 762.62 429.22 768.42
  A 2.99 2.99 0.0 0 0 431.08 770.50
  L 437.50 772.94
  Q 437.92 773.09 438.34 772.95
  C 448.46 769.56 443.79 757.60 448.17 751.44
  C 450.06 748.79 457.22 738.35 459.67 737.25
  A 1.23 1.23 0.0 0 1 461.40 738.31
  Q 461.90 747.62 461.82 756.99
  C 461.72 768.59 471.17 774.99 479.89 764.85
  Q 486.94 756.64 491.16 746.52
  Q 491.36 746.04 491.47 746.54
  Q 493.55 756.20 502.37 758.06
  C 507.57 759.15 512.34 756.35 516.22 753.10
  Q 516.64 752.74 516.59 753.30
  L 514.94 771.49
  Q 514.90 771.91 514.53 772.11
  Q 502.07 778.96 501.77 792.50
  Q 501.65 797.87 505.49 800.83
  C 510.90 805.00 519.09 802.26 523.57 797.93
  C 527.82 793.81 529.91 786.94 531.38 780.96
  A 0.66 0.65 -47.5 0 1 532.64 780.90
  Q 533.63 783.89 536.67 784.31
  Q 537.18 784.38 537.31 783.88
  C 538.17 780.43 535.28 778.17 533.27 776.00
  A 1.12 1.10 -62.9 0 1 532.99 775.10
  Q 533.65 770.43 534.23 765.75
  C 534.48 763.67 533.66 761.24 533.73 759.08
  C 534.20 745.65 534.10 718.28 515.26 716.02
  C 503.77 714.65 495.33 720.97 492.33 731.87
  C 489.88 740.78 483.27 753.45 476.54 759.86
  A 0.87 0.86 -36.4 0 1 475.19 759.66
  C 472.84 755.39 475.88 744.88 476.79 740.06
  C 477.92 734.14 477.58 729.67 473.91 725.28
  C 466.30 716.17 453.12 736.33 449.75 741.25
  Q 448.60 742.93 448.35 740.91
  C 447.96 737.74 448.23 733.36 446.22 730.68
  C 443.89 727.54 437.42 722.27 433.61 726.00
  Q 433.24 726.36 433.19 726.87
  Q 432.78 731.55 431.81 734.05
  C 428.70 742.08 419.53 760.63 410.80 762.48
  A 1.34 1.30 56.3 0 1 409.73 762.25
  Q 405.85 759.41 405.81 754.50
  A 1.45 1.43 -26.5 0 1 406.13 753.57
  C 411.37 747.06 418.20 738.43 417.19 729.08
  C 416.36 721.42 408.98 719.10 402.55 722.05
  C 390.42 727.60 388.01 744.90 391.21 756.36
  C 393.20 763.46 397.50 768.26 404.79 769.22
  C 418.33 770.99 423.80 760.80 429.09 750.69
  Q 429.48 749.95 429.42 750.79"
/>
<path stroke="#e99e8d" vector-effect="non-scaling-stroke" d="
  M 365.95 689.91
  C 365.29 687.43 361.59 683.26 358.93 685.90
  C 352.78 692.01 347.52 700.68 348.22 709.56
  Q 349.04 719.95 349.94 730.03
  A 0.64 0.64 0.0 0 0 350.99 730.46
  C 358.51 724.00 363.24 716.88 365.28 707.05
  C 366.47 701.33 367.40 695.39 365.95 689.91"
/>
<path stroke="#e99e8d" vector-effect="non-scaling-stroke" d="
  M 365.81 730.56
  C 362.40 728.43 353.41 736.99 351.84 739.08
  Q 351.55 739.46 351.61 739.94
  Q 353.21 754.48 359.77 767.58
  Q 360.24 768.52 360.83 767.65
  Q 370.49 753.33 370.74 737.01
  C 370.77 734.71 367.46 731.60 365.81 730.56"
/>
<path stroke="#e99e8d" vector-effect="non-scaling-stroke" d="
  M 610.17 686.19
  Q 609.28 687.74 609.01 688.95
  Q 605.17 706.39 605.45 724.51
  A 0.38 0.38 0.0 0 0 606.19 724.64
  Q 613.04 707.11 611.19 687.96
  Q 611.08 686.85 610.74 686.21
  A 0.32 0.32 0.0 0 0 610.17 686.19"
/>
<path stroke="#e99e8d" vector-effect="non-scaling-stroke" d="
  M 552.17 757.49
  Q 557.23 757.39 560.03 752.88
  C 564.80 745.17 570.21 737.42 563.75 728.71
  C 562.17 726.59 559.50 725.38 557.47 727.51
  C 551.35 733.89 546.47 747.42 550.56 756.47
  A 1.73 1.73 0.0 0 0 552.17 757.49"
/>
<path stroke="#e99e8d" vector-effect="non-scaling-stroke" d="
  M 721.69 686.36
  C 720.46 694.24 721.27 703.45 721.16 711.47
  A 0.32 0.32 0.0 0 0 721.73 711.67
  C 726.15 706.20 727.74 692.16 724.60 685.90
  A 1.55 1.55 0.0 0 0 721.69 686.36"
/>
<path stroke="#e99e8d" vector-effect="non-scaling-stroke" d="
  M 792.64 736.83
  A 1.14 1.13 20.4 0 0 794.44 736.01
  Q 794.98 729.88 791.71 724.90
  A 0.78 0.78 0.0 0 0 790.30 725.15
  C 789.34 729.44 788.52 733.85 792.64 736.83"
/>
<path stroke="#e99e8d" vector-effect="non-scaling-stroke" d="
  M 836.51 727.71
  A 1.86 1.85 -31.1 0 0 834.18 727.14
  C 827.74 730.36 825.90 739.06 823.92 745.47
  C 822.35 750.53 823.06 756.38 822.45 761.79
  A 0.58 0.57 83.6 0 0 823.21 762.40
  C 826.40 761.31 830.01 760.36 832.47 758.10
  C 838.80 752.27 839.43 743.08 838.87 734.45
  Q 838.63 730.67 836.51 727.71"
/>
<path stroke="#e99e8d" vector-effect="non-scaling-stroke" d="
  M 783.89 757.36
  C 789.02 761.51 793.58 746.13 794.00 742.68
  Q 794.07 742.10 793.49 742.05
  Q 785.73 741.27 783.35 733.92
  Q 783.14 733.29 782.80 733.86
  C 779.79 738.99 778.22 752.78 783.89 757.36"
/>
<path stroke="#e99e8d" vector-effect="non-scaling-stroke" d="
  M 515.86 721.38
  A 1.39 1.38 57.2 0 0 514.46 721.07
  C 506.87 723.74 506.62 738.68 505.91 744.91
  C 504.56 756.62 511.66 752.53 515.50 747.25
  C 519.25 742.09 520.94 726.24 515.86 721.38"
/>
<path stroke="#e99e8d" vector-effect="non-scaling-stroke" d="
  M 409.46 725.02
  C 404.58 724.51 405.00 742.00 405.04 744.92
  Q 405.05 745.49 405.45 745.08
  C 410.16 740.31 414.18 731.41 410.21 725.47
  Q 409.94 725.07 409.46 725.02"
/>
<path stroke="#e99e8d" vector-effect="non-scaling-stroke" d="
  M 508.97 796.89
  C 513.99 797.33 514.06 781.24 513.93 778.28
  A 0.34 0.34 0.0 0 0 513.37 778.04
  Q 505.76 784.72 506.87 794.83
  A 2.32 2.31 -0.4 0 0 508.97 796.89"
/>
</g>
<path fill="#dd5a44" d="
  M 893.92 830.27
  C 889.97 859.22 885.67 888.24 879.28 916.76
  C 871.87 949.84 856.58 978.83 831.99 1001.96
  C 814.32 1018.58 788.01 1024.61 764.31 1024.69
  C 720.33 1024.84 653.76 1024.35 565.23 1024.94
  Q 497.03 1025.39 428.84 1023.83
  C 375.12 1022.60 325.66 1021.73 304.01 963.00
  C 288.54 921.02 285.84 874.09 282.68 830.20
  Q 282.65 829.75 282.19 829.75
  L 260.28 829.75
  Q 259.75 829.75 260.05 829.30
  L 279.75 800.21
  Q 280.09 799.71 280.02 799.11
  Q 272.27 735.16 266.07 671.07
  C 265.74 667.59 262.09 663.53 260.17 660.67
  A 0.40 0.40 0.0 0 1 260.49 660.05
  L 264.50 659.98
  Q 264.95 659.97 264.90 659.52
  Q 260.94 620.10 256.48 580.75
  C 255.61 573.06 267.54 565.81 273.51 563.60
  A 0.65 0.64 -22.0 0 0 273.88 562.75
  C 254.99 519.01 279.43 468.71 316.86 444.27
  A 0.51 0.51 0.0 0 0 316.87 443.42
  Q 305.73 435.97 294.91 428.11
  C 278.54 416.23 295.59 389.83 314.91 397.81
  C 330.74 404.34 343.56 414.78 355.23 427.13
  A 0.88 0.85 -27.7 0 0 356.07 427.38
  C 406.08 414.71 464.98 429.28 493.10 475.64
  Q 493.88 476.91 494.19 475.46
  C 497.23 461.37 501.52 447.52 507.15 434.24
  Q 512.46 421.71 510.43 408.13
  A 0.72 0.72 0.0 0 0 509.48 407.56
  C 503.63 409.55 496.71 411.49 490.79 410.04
  C 479.65 407.30 478.35 399.82 474.76 388.46
  Q 466.02 360.79 458.29 332.82
  C 454.99 320.86 457.57 314.06 468.77 308.89
  C 517.61 286.31 569.23 264.94 622.76 256.80
  C 634.04 255.08 639.73 260.23 643.30 270.29
  Q 654.68 302.33 666.04 334.38
  Q 667.58 338.74 667.40 341.40
  C 666.61 352.86 656.35 356.14 648.87 362.12
  Q 648.45 362.46 648.77 362.89
  C 659.53 377.42 675.35 386.19 690.28 397.43
  Q 690.72 397.77 690.94 397.26
  Q 709.04 354.25 729.57 312.38
  C 757.68 255.03 804.88 167.99 882.40 175.52
  C 923.17 179.48 940.11 210.07 942.61 247.58
  C 944.97 283.07 939.10 319.30 932.89 354.18
  Q 912.53 468.69 874.23 578.50
  Q 873.98 579.23 874.74 579.07
  Q 890.56 575.75 906.04 569.76
  C 920.77 564.07 933.10 575.97 930.63 591.19
  Q 925.09 625.32 919.56 659.47
  Q 919.47 660.00 920.00 660.00
  L 940.12 660.00
  A 0.21 0.21 0.0 0 1 940.29 660.32
  Q 927.28 679.45 914.37 698.55
  Q 913.02 700.55 912.61 702.94
  Q 906.79 737.40 901.72 771.97
  A 1.52 1.51 32.2 0 0 901.96 773.02
  L 940.19 829.32
  Q 940.48 829.75 939.96 829.75
  L 894.51 829.75
  Q 893.99 829.75 893.92 830.27
  Z
  M 671.08 563.94
  C 693.18 561.06 717.16 560.87 737.25 564.26
  C 762.51 568.51 797.27 577.30 828.38 581.17
  Q 828.86 581.23 829.03 580.78
  L 844.18 541.25
  Q 844.35 540.82 843.89 540.72
  C 824.96 536.71 807.28 533.65 789.81 535.60
  Q 765.42 538.32 750.39 538.96
  C 743.30 539.27 736.00 535.73 736.75 527.55
  C 737.22 522.46 744.15 517.66 749.07 514.61
  C 780.27 495.30 822.22 497.23 856.25 506.23
  Q 856.98 506.43 857.20 505.71
  L 872.13 457.94
  Q 872.29 457.44 871.77 457.38
  C 839.20 453.72 808.94 456.79 777.23 464.75
  Q 773.18 465.76 771.18 465.58
  C 758.90 464.44 757.56 448.72 767.19 442.67
  C 800.17 421.92 842.02 419.62 879.38 425.62
  Q 879.82 425.69 879.92 425.25
  L 889.50 382.44
  Q 889.93 380.52 888.00 380.16
  C 860.98 375.01 833.65 381.11 806.51 386.13
  Q 798.22 387.67 794.42 386.88
  C 785.30 384.99 776.97 372.83 785.82 365.06
  C 815.26 339.24 860.14 337.51 896.43 344.88
  Q 896.93 344.98 897.03 344.48
  C 903.37 315.06 918.80 240.21 892.26 217.84
  C 875.18 203.46 844.67 216.66 829.60 228.85
  C 808.59 245.85 794.49 269.58 780.93 293.10
  Q 731.30 379.17 698.52 475.51
  Q 682.00 524.04 670.67 563.47
  Q 670.51 564.02 671.08 563.94
  Z
  M 503.55 370.40
  C 507.20 363.19 521.46 357.89 528.72 355.28
  C 560.25 343.94 592.97 336.39 625.90 329.53
  A 0.45 0.44 75.0 0 0 626.23 328.95
  L 614.01 292.77
  Q 613.84 292.26 613.32 292.36
  C 570.16 300.72 531.75 316.35 492.20 335.25
  Q 491.66 335.51 491.85 336.08
  L 503.12 370.37
  A 0.23 0.23 0.0 0 0 503.55 370.40
  Z
  M 573.58 479.04
  C 593.21 476.57 612.29 484.23 632.54 482.02
  C 646.92 480.44 655.34 473.02 664.62 462.57
  Q 666.66 460.27 667.83 457.27
  Q 672.94 444.11 677.90 430.38
  A 1.30 1.29 -57.9 0 0 677.59 429.02
  Q 668.51 420.34 658.56 412.98
  C 646.90 404.35 629.47 399.61 621.16 387.42
  Q 619.00 384.24 616.97 377.56
  C 615.82 373.78 613.00 360.05 607.50 360.72
  Q 600.50 361.58 592.55 364.28
  Q 581.62 367.99 551.11 380.25
  Q 546.86 381.96 542.49 383.25
  A 0.73 0.72 75.6 0 0 541.99 384.11
  C 542.87 387.97 543.24 391.65 544.95 395.38
  C 554.80 416.86 545.66 434.84 538.46 454.71
  Q 531.22 474.70 528.56 496.00
  Q 528.48 496.65 529.02 496.28
  Q 549.37 482.08 573.58 479.04
  Z
  M 374.45 501.44
  C 368.32 505.15 355.85 505.72 352.32 497.71
  Q 348.18 488.30 343.38 479.12
  Q 343.12 478.62 342.63 478.91
  C 314.74 495.37 308.52 522.64 308.67 552.89
  Q 308.67 553.31 309.08 553.24
  C 325.92 550.39 344.17 551.75 360.91 554.70
  C 379.60 557.99 397.74 562.15 415.94 568.17
  Q 443.82 577.41 471.96 585.86
  Q 472.43 586.00 472.58 585.53
  C 487.02 537.45 470.47 480.69 416.28 467.95
  Q 396.35 463.27 376.32 466.88
  A 0.50 0.49 75.3 0 0 375.95 467.53
  Q 378.86 476.19 380.06 485.40
  C 380.96 492.29 380.47 497.80 374.45 501.44
  Z
  M 629.31 517.94
  C 611.18 516.81 591.35 510.76 573.50 513.76
  C 556.18 516.67 541.10 529.08 529.73 543.44
  Q 529.42 543.82 529.49 544.31
  Q 532.87 567.65 539.88 590.15
  Q 540.02 590.60 540.48 590.55
  Q 559.97 588.70 570.20 585.95
  Q 601.69 577.47 633.51 569.83
  Q 633.98 569.72 634.10 569.25
  L 648.23 516.73
  Q 648.39 516.13 647.77 516.25
  Q 636.80 518.40 629.31 517.94
  Z
  M 846.31 617.44
  C 787.54 616.44 731.39 590.83 672.26 599.59
  C 645.21 603.60 620.44 611.59 594.75 618.25
  Q 558.42 627.68 521.00 628.46
  C 491.92 629.06 462.90 623.16 434.69 613.57
  C 390.80 598.66 334.88 576.38 289.83 599.67
  Q 289.20 600.00 289.31 600.71
  L 298.37 659.68
  A 0.39 0.38 -4.4 0 0 298.75 660.00
  L 882.51 660.00
  Q 883.05 660.00 883.13 659.47
  L 890.37 613.22
  Q 890.46 612.65 889.90 612.77
  Q 866.37 617.78 846.31 617.44
  Z
  M 369.20 723.29
  C 371.92 719.20 375.44 715.90 377.20 710.82
  C 379.28 704.83 383.31 686.08 377.55 681.37
  C 365.54 671.56 352.90 676.87 345.15 688.52
  Q 344.82 689.00 344.44 688.57
  L 341.83 685.64
  Q 341.48 685.25 340.97 685.19
  C 337.14 684.73 334.94 683.62 331.03 684.70
  A 2.41 2.40 87.0 0 0 329.30 686.63
  C 325.51 709.67 329.02 735.13 334.35 757.68
  C 335.93 764.36 339.27 773.19 345.49 777.55
  Q 349.26 780.18 354.07 779.84
  C 367.21 778.90 378.50 769.75 382.99 757.82
  Q 385.73 750.55 386.22 747.24
  C 386.67 744.23 386.44 735.91 384.26 732.29
  C 380.81 726.57 376.97 723.07 369.69 724.06
  A 0.50 0.50 0.0 0 1 369.20 723.29
  Z
  M 690.14 703.06
  L 688.29 700.87
  Q 687.96 700.48 687.46 700.59
  C 681.10 701.90 687.01 711.49 694.05 706.95
  Q 699.47 703.45 699.97 696.25
  Q 700.91 682.78 688.28 679.47
  Q 680.49 677.43 674.57 681.59
  Q 659.46 692.19 661.82 711.53
  C 663.53 725.55 671.13 738.56 676.78 751.10
  Q 682.02 762.74 682.93 766.56
  C 684.62 773.71 677.40 782.20 669.81 779.21
  Q 659.41 775.10 659.22 763.46
  C 659.17 760.78 659.42 753.39 662.86 752.88
  Q 663.34 752.81 663.57 753.24
  C 665.62 757.07 662.93 763.71 666.18 766.30
  C 668.57 768.20 670.33 767.11 671.74 764.79
  C 674.38 760.44 673.65 755.02 671.02 751.08
  C 668.33 747.06 660.82 745.23 657.25 748.96
  C 648.05 758.59 650.68 773.34 660.49 781.20
  C 666.55 786.05 677.45 785.55 684.55 784.02
  C 695.65 781.64 701.87 769.46 700.96 759.30
  C 699.49 742.77 691.25 727.69 682.02 710.45
  C 679.62 705.98 676.28 695.29 677.95 690.31
  Q 680.05 684.02 688.93 685.67
  C 694.61 686.73 697.00 700.77 690.95 703.26
  Q 690.48 703.45 690.14 703.06
  Z
  M 566.37 750.00
  A 0.33 0.32 -36.6 0 1 566.99 750.09
  C 567.93 757.97 571.68 769.74 582.50 766.26
  C 588.64 764.29 591.67 758.27 594.25 752.83
  Q 594.54 752.21 594.79 752.85
  C 597.23 759.06 605.24 772.77 613.94 769.47
  C 617.67 768.06 624.05 759.76 625.75 755.45
  Q 631.21 741.65 636.58 727.74
  A 0.25 0.25 0.0 0 0 636.16 727.48
  C 633.17 730.73 630.15 733.30 628.24 737.45
  C 626.37 741.49 619.70 758.67 614.99 759.29
  Q 614.41 759.37 614.01 758.96
  C 609.33 754.26 606.86 740.79 606.25 735.50
  Q 606.19 734.96 606.43 734.48
  C 608.39 730.52 610.26 726.89 611.37 722.56
  Q 613.33 714.90 615.10 707.20
  C 615.93 703.57 615.86 699.24 616.75 695.26
  C 617.75 690.82 617.02 677.56 608.04 679.25
  C 589.63 682.72 590.63 729.85 592.24 742.91
  C 592.81 747.53 588.17 754.22 585.51 757.96
  A 1.98 1.98 0.0 0 1 582.94 758.53
  C 578.93 756.31 581.49 731.27 580.18 724.76
  C 579.37 720.78 575.13 719.34 571.72 718.36
  A 0.74 0.74 0.0 0 0 570.81 718.83
  L 567.93 727.04
  A 0.50 0.50 0.0 0 1 567.00 727.09
  C 561.43 715.08 546.43 722.98 541.25 730.26
  C 535.63 738.16 533.22 751.78 540.32 760.09
  Q 542.57 762.72 545.28 763.62
  C 555.27 766.94 562.84 757.96 566.37 750.00
  Z
  M 763.43 745.43
  C 763.97 752.45 766.99 761.53 774.55 763.97
  C 792.98 769.91 797.00 754.93 800.67 741.63
  A 0.80 0.79 7.6 0 1 801.44 741.05
  Q 804.45 741.04 806.98 739.54
  Q 807.46 739.25 807.44 739.81
  Q 806.91 753.97 805.07 768.01
  C 804.11 775.34 804.39 784.77 804.17 789.84
  Q 803.57 803.44 802.33 816.98
  A 1.80 1.80 0.0 0 0 804.15 818.95
  L 807.68 818.90
  Q 808.07 818.90 808.39 818.66
  Q 810.10 817.42 812.04 817.63
  A 1.54 1.50 -55.8 0 0 812.93 817.45
  L 819.17 814.07
  Q 819.67 813.80 819.89 813.27
  C 821.38 809.72 822.79 806.29 822.95 802.30
  Q 823.62 786.06 822.73 769.76
  A 0.58 0.58 0.0 0 1 823.25 769.15
  C 840.94 766.99 856.99 763.47 866.73 746.86
  C 869.98 741.33 873.99 734.70 875.69 728.52
  Q 875.94 727.61 875.30 728.31
  Q 872.94 730.87 870.57 733.40
  C 866.02 738.26 861.89 745.73 858.73 749.47
  Q 856.05 752.65 849.95 756.03
  Q 849.27 756.40 849.59 755.70
  C 854.07 745.88 857.77 733.46 851.77 724.03
  C 849.24 720.07 841.44 716.67 836.88 717.90
  C 826.61 720.66 823.93 727.56 819.72 736.33
  A 0.38 0.38 0.0 0 1 819.00 736.13
  Q 819.27 733.36 817.98 730.89
  Q 817.72 730.40 817.74 729.85
  Q 817.82 726.21 814.16 725.54
  Q 813.62 725.44 813.15 725.72
  Q 811.72 726.58 809.97 726.65
  A 1.28 1.28 0.0 0 0 808.75 727.76
  L 808.04 733.58
  Q 807.97 734.14 807.54 734.51
  Q 804.86 736.81 801.34 737.04
  Q 800.68 737.09 800.60 736.43
  C 799.40 726.15 799.87 720.33 788.35 716.56
  C 779.93 713.80 770.54 720.85 767.16 727.95
  C 763.34 735.98 758.74 743.99 756.06 749.32
  Q 754.11 753.18 751.45 755.71
  A 0.71 0.70 -47.3 0 1 750.52 755.75
  Q 749.11 754.60 749.18 752.74
  C 749.52 743.64 750.58 732.00 744.43 725.14
  C 743.47 724.08 741.04 722.72 739.93 722.80
  C 731.41 723.37 727.06 728.57 722.68 734.67
  A 0.38 0.37 62.1 0 1 722.00 734.46
  L 721.58 719.19
  Q 721.56 718.64 721.93 718.22
  Q 730.76 708.11 730.90 694.49
  C 730.95 688.98 728.82 679.65 721.81 679.21
  C 720.00 679.10 718.47 680.08 716.75 680.72
  C 707.82 684.01 706.80 708.46 706.24 714.11
  A 0.37 0.37 0.0 0 1 705.58 714.31
  L 703.65 711.85
  A 1.33 1.33 0.0 0 0 701.60 711.80
  C 699.10 714.70 702.80 717.48 705.67 719.07
  Q 706.16 719.34 706.21 719.89
  Q 706.29 720.67 706.25 721.75
  C 705.71 736.28 704.78 754.86 707.63 770.19
  A 1.46 1.46 0.0 0 0 708.64 771.32
  Q 716.63 773.78 722.10 767.98
  Q 722.47 767.59 722.52 767.05
  C 723.19 759.99 721.36 752.11 722.01 747.26
  C 722.19 745.97 727.01 730.95 731.25 733.08
  Q 731.75 733.33 731.95 733.86
  C 734.69 741.12 734.33 749.45 735.75 758.00
  C 736.73 763.94 739.51 768.88 746.36 767.14
  C 754.65 765.04 760.41 752.70 762.97 745.37
  A 0.24 0.24 0.0 0 1 763.43 745.43
  Z
  M 429.42 750.79
  C 429.02 756.69 427.77 762.62 429.22 768.42
  A 2.99 2.99 0.0 0 0 431.08 770.50
  L 437.50 772.94
  Q 437.92 773.09 438.34 772.95
  C 448.46 769.56 443.79 757.60 448.17 751.44
  C 450.06 748.79 457.22 738.35 459.67 737.25
  A 1.23 1.23 0.0 0 1 461.40 738.31
  Q 461.90 747.62 461.82 756.99
  C 461.72 768.59 471.17 774.99 479.89 764.85
  Q 486.94 756.64 491.16 746.52
  Q 491.36 746.04 491.47 746.54
  Q 493.55 756.20 502.37 758.06
  C 507.57 759.15 512.34 756.35 516.22 753.10
  Q 516.64 752.74 516.59 753.30
  L 514.94 771.49
  Q 514.90 771.91 514.53 772.11
  Q 502.07 778.96 501.77 792.50
  Q 501.65 797.87 505.49 800.83
  C 510.90 805.00 519.09 802.26 523.57 797.93
  C 527.82 793.81 529.91 786.94 531.38 780.96
  A 0.66 0.65 -47.5 0 1 532.64 780.90
  Q 533.63 783.89 536.67 784.31
  Q 537.18 784.38 537.31 783.88
  C 538.17 780.43 535.28 778.17 533.27 776.00
  A 1.12 1.10 -62.9 0 1 532.99 775.10
  Q 533.65 770.43 534.23 765.75
  C 534.48 763.67 533.66 761.24 533.73 759.08
  C 534.20 745.65 534.10 718.28 515.26 716.02
  C 503.77 714.65 495.33 720.97 492.33 731.87
  C 489.88 740.78 483.27 753.45 476.54 759.86
  A 0.87 0.86 -36.4 0 1 475.19 759.66
  C 472.84 755.39 475.88 744.88 476.79 740.06
  C 477.92 734.14 477.58 729.67 473.91 725.28
  C 466.30 716.17 453.12 736.33 449.75 741.25
  Q 448.60 742.93 448.35 740.91
  C 447.96 737.74 448.23 733.36 446.22 730.68
  C 443.89 727.54 437.42 722.27 433.61 726.00
  Q 433.24 726.36 433.19 726.87
  Q 432.78 731.55 431.81 734.05
  C 428.70 742.08 419.53 760.63 410.80 762.48
  A 1.34 1.30 56.3 0 1 409.73 762.25
  Q 405.85 759.41 405.81 754.50
  A 1.45 1.43 -26.5 0 1 406.13 753.57
  C 411.37 747.06 418.20 738.43 417.19 729.08
  C 416.36 721.42 408.98 719.10 402.55 722.05
  C 390.42 727.60 388.01 744.90 391.21 756.36
  C 393.20 763.46 397.50 768.26 404.79 769.22
  C 418.33 770.99 423.80 760.80 429.09 750.69
  Q 429.48 749.95 429.42 750.79
  Z
  M 311.43 753.59
  L 316.93 745.47
  A 0.79 0.76 -45.2 0 0 316.94 744.60
  L 308.69 732.33
  Q 308.15 731.52 308.27 732.48
  L 311.02 753.49
  A 0.23 0.23 0.0 0 0 311.43 753.59
  Z
  M 330.32 909.74
  C 332.23 932.22 337.89 972.30 364.00 980.06
  C 390.22 987.85 418.52 981.42 445.50 981.48
  Q 519.91 981.66 594.31 981.04
  Q 679.88 980.33 745.93 983.11
  C 770.85 984.17 796.36 983.72 814.96 965.82
  C 827.25 954.00 836.43 933.59 841.52 917.26
  Q 842.21 915.05 842.60 912.76
  Q 849.64 871.58 856.15 830.23
  Q 856.23 829.75 855.74 829.75
  L 747.98 829.75
  A 1.86 1.84 29.7 0 0 747.05 830.00
  C 699.23 857.95 651.22 881.68 598.38 900.29
  C 577.74 907.55 555.18 916.61 535.95 900.06
  C 520.86 887.07 522.06 863.81 527.08 846.31
  Q 528.37 841.80 533.13 830.30
  Q 533.35 829.75 532.76 829.75
  L 321.54 829.75
  A 0.48 0.47 86.3 0 0 321.07 830.29
  C 324.33 856.74 328.06 883.12 330.32 909.74
  Z
  M 577.59 830.26
  C 571.44 840.73 549.58 878.91 587.53 861.82
  Q 620.82 846.83 653.42 830.14
  A 0.21 0.20 -58.3 0 0 653.33 829.75
  L 578.47 829.75
  Q 577.89 829.75 577.59 830.26
  Z"
/>
<ellipse fill="#dd5a44" cx="0.00" cy="0.00" transform="translate(409.38,505.31) rotate(133.7)" rx="11.68" ry="11.22"/>
<circle fill="#dd5a44" cx="351.83" cy="529.29" r="11.43"/>
<ellipse fill="#dd5a44" cx="0.00" cy="0.00" transform="translate(443.03,540.81) rotate(-43.5)" rx="11.59" ry="11.24"/>
<path fill="#f4e1d5" d="
  M 369.20 723.29
  A 0.50 0.50 0.0 0 0 369.69 724.06
  C 376.97 723.07 380.81 726.57 384.26 732.29
  C 386.44 735.91 386.67 744.23 386.22 747.24
  Q 385.73 750.55 382.99 757.82
  C 378.50 769.75 367.21 778.90 354.07 779.84
  Q 349.26 780.18 345.49 777.55
  C 339.27 773.19 335.93 764.36 334.35 757.68
  C 329.02 735.13 325.51 709.67 329.30 686.63
  A 2.41 2.40 87.0 0 1 331.03 684.70
  C 334.94 683.62 337.14 684.73 340.97 685.19
  Q 341.48 685.25 341.83 685.64
  L 344.44 688.57
  Q 344.82 689.00 345.15 688.52
  C 352.90 676.87 365.54 671.56 377.55 681.37
  C 383.31 686.08 379.28 704.83 377.20 710.82
  C 375.44 715.90 371.92 719.20 369.20 723.29
  Z
  M 365.95 689.91
  C 365.29 687.43 361.59 683.26 358.93 685.90
  C 352.78 692.01 347.52 700.68 348.22 709.56
  Q 349.04 719.95 349.94 730.03
  A 0.64 0.64 0.0 0 0 350.99 730.46
  C 358.51 724.00 363.24 716.88 365.28 707.05
  C 366.47 701.33 367.40 695.39 365.95 689.91
  Z
  M 365.81 730.56
  C 362.40 728.43 353.41 736.99 351.84 739.08
  Q 351.55 739.46 351.61 739.94
  Q 353.21 754.48 359.77 767.58
  Q 360.24 768.52 360.83 767.65
  Q 370.49 753.33 370.74 737.01
  C 370.77 734.71 367.46 731.60 365.81 730.56
  Z"
/>
<path fill="#f4e1d5" d="
  M 690.95 703.26
  C 697.00 700.77 694.61 686.73 688.93 685.67
  Q 680.05 684.02 677.95 690.31
  C 676.28 695.29 679.62 705.98 682.02 710.45
  C 691.25 727.69 699.49 742.77 700.96 759.30
  C 701.87 769.46 695.65 781.64 684.55 784.02
  C 677.45 785.55 666.55 786.05 660.49 781.20
  C 650.68 773.34 648.05 758.59 657.25 748.96
  C 660.82 745.23 668.33 747.06 671.02 751.08
  C 673.65 755.02 674.38 760.44 671.74 764.79
  C 670.33 767.11 668.57 768.20 666.18 766.30
  C 662.93 763.71 665.62 757.07 663.57 753.24
  Q 663.34 752.81 662.86 752.88
  C 659.42 753.39 659.17 760.78 659.22 763.46
  Q 659.41 775.10 669.81 779.21
  C 677.40 782.20 684.62 773.71 682.93 766.56
  Q 682.02 762.74 676.78 751.10
  C 671.13 738.56 663.53 725.55 661.82 711.53
  Q 659.46 692.19 674.57 681.59
  Q 680.49 677.43 688.28 679.47
  Q 700.91 682.78 699.97 696.25
  Q 699.47 703.45 694.05 706.95
  C 687.01 711.49 681.10 701.90 687.46 700.59
  Q 687.96 700.48 688.29 700.87
  L 690.14 703.06
  Q 690.48 703.45 690.95 703.26
  Z"
/>
<path fill="#f4e1d5" d="
  M 566.37 750.00
  C 562.84 757.96 555.27 766.94 545.28 763.62
  Q 542.57 762.72 540.32 760.09
  C 533.22 751.78 535.63 738.16 541.25 730.26
  C 546.43 722.98 561.43 715.08 567.00 727.09
  A 0.50 0.50 0.0 0 0 567.93 727.04
  L 570.81 718.83
  A 0.74 0.74 0.0 0 1 571.72 718.36
  C 575.13 719.34 579.37 720.78 580.18 724.76
  C 581.49 731.27 578.93 756.31 582.94 758.53
  A 1.98 1.98 0.0 0 0 585.51 757.96
  C 588.17 754.22 592.81 747.53 592.24 742.91
  C 590.63 729.85 589.63 682.72 608.04 679.25
  C 617.02 677.56 617.75 690.82 616.75 695.26
  C 615.86 699.24 615.93 703.57 615.10 707.20
  Q 613.33 714.90 611.37 722.56
  C 610.26 726.89 608.39 730.52 606.43 734.48
  Q 606.19 734.96 606.25 735.50
  C 606.86 740.79 609.33 754.26 614.01 758.96
  Q 614.41 759.37 614.99 759.29
  C 619.70 758.67 626.37 741.49 628.24 737.45
  C 630.15 733.30 633.17 730.73 636.16 727.48
  A 0.25 0.25 0.0 0 1 636.58 727.74
  Q 631.21 741.65 625.75 755.45
  C 624.05 759.76 617.67 768.06 613.94 769.47
  C 605.24 772.77 597.23 759.06 594.79 752.85
  Q 594.54 752.21 594.25 752.83
  C 591.67 758.27 588.64 764.29 582.50 766.26
  C 571.68 769.74 567.93 757.97 566.99 750.09
  A 0.33 0.32 -36.6 0 0 566.37 750.00
  Z
  M 610.17 686.19
  Q 609.28 687.74 609.01 688.95
  Q 605.17 706.39 605.45 724.51
  A 0.38 0.38 0.0 0 0 606.19 724.64
  Q 613.04 707.11 611.19 687.96
  Q 611.08 686.85 610.74 686.21
  A 0.32 0.32 0.0 0 0 610.17 686.19
  Z
  M 552.17 757.49
  Q 557.23 757.39 560.03 752.88
  C 564.80 745.17 570.21 737.42 563.75 728.71
  C 562.17 726.59 559.50 725.38 557.47 727.51
  C 551.35 733.89 546.47 747.42 550.56 756.47
  A 1.73 1.73 0.0 0 0 552.17 757.49
  Z"
/>
<path fill="#f4e1d5" d="
  M 763.43 745.43
  A 0.24 0.24 0.0 0 0 762.97 745.37
  C 760.41 752.70 754.65 765.04 746.36 767.14
  C 739.51 768.88 736.73 763.94 735.75 758.00
  C 734.33 749.45 734.69 741.12 731.95 733.86
  Q 731.75 733.33 731.25 733.08
  C 727.01 730.95 722.19 745.97 722.01 747.26
  C 721.36 752.11 723.19 759.99 722.52 767.05
  Q 722.47 767.59 722.10 767.98
  Q 716.63 773.78 708.64 771.32
  A 1.46 1.46 0.0 0 1 707.63 770.19
  C 704.78 754.86 705.71 736.28 706.25 721.75
  Q 706.29 720.67 706.21 719.89
  Q 706.16 719.34 705.67 719.07
  C 702.80 717.48 699.10 714.70 701.60 711.80
  A 1.33 1.33 0.0 0 1 703.65 711.85
  L 705.58 714.31
  A 0.37 0.37 0.0 0 0 706.24 714.11
  C 706.80 708.46 707.82 684.01 716.75 680.72
  C 718.47 680.08 720.00 679.10 721.81 679.21
  C 728.82 679.65 730.95 688.98 730.90 694.49
  Q 730.76 708.11 721.93 718.22
  Q 721.56 718.64 721.58 719.19
  L 722.00 734.46
  A 0.38 0.37 62.1 0 0 722.68 734.67
  C 727.06 728.57 731.41 723.37 739.93 722.80
  C 741.04 722.72 743.47 724.08 744.43 725.14
  C 750.58 732.00 749.52 743.64 749.18 752.74
  Q 749.11 754.60 750.52 755.75
  A 0.71 0.70 -47.3 0 0 751.45 755.71
  Q 754.11 753.18 756.06 749.32
  C 758.74 743.99 763.34 735.98 767.16 727.95
  C 770.54 720.85 779.93 713.80 788.35 716.56
  C 799.87 720.33 799.40 726.15 800.60 736.43
  Q 800.68 737.09 801.34 737.04
  Q 804.86 736.81 807.54 734.51
  Q 807.97 734.14 808.04 733.58
  L 808.75 727.76
  A 1.28 1.28 0.0 0 1 809.97 726.65
  Q 811.72 726.58 813.15 725.72
  Q 813.62 725.44 814.16 725.54
  Q 817.82 726.21 817.74 729.85
  Q 817.72 730.40 817.98 730.89
  Q 819.27 733.36 819.00 736.13
  A 0.38 0.38 0.0 0 0 819.72 736.33
  C 823.93 727.56 826.61 720.66 836.88 717.90
  C 841.44 716.67 849.24 720.07 851.77 724.03
  C 857.77 733.46 854.07 745.88 849.59 755.70
  Q 849.27 756.40 849.95 756.03
  Q 856.05 752.65 858.73 749.47
  C 861.89 745.73 866.02 738.26 870.57 733.40
  Q 872.94 730.87 875.30 728.31
  Q 875.94 727.61 875.69 728.52
  C 873.99 734.70 869.98 741.33 866.73 746.86
  C 856.99 763.47 840.94 766.99 823.25 769.15
  A 0.58 0.58 0.0 0 0 822.73 769.76
  Q 823.62 786.06 822.95 802.30
  C 822.79 806.29 821.38 809.72 819.89 813.27
  Q 819.67 813.80 819.17 814.07
  L 812.93 817.45
  A 1.54 1.50 -55.8 0 1 812.04 817.63
  Q 810.10 817.42 808.39 818.66
  Q 808.07 818.90 807.68 818.90
  L 804.15 818.95
  A 1.80 1.80 0.0 0 1 802.33 816.98
  Q 803.57 803.44 804.17 789.84
  C 804.39 784.77 804.11 775.34 805.07 768.01
  Q 806.91 753.97 807.44 739.81
  Q 807.46 739.25 806.98 739.54
  Q 804.45 741.04 801.44 741.05
  A 0.80 0.79 7.6 0 0 800.67 741.63
  C 797.00 754.93 792.98 769.91 774.55 763.97
  C 766.99 761.53 763.97 752.45 763.43 745.43
  Z
  M 721.69 686.36
  C 720.46 694.24 721.27 703.45 721.16 711.47
  A 0.32 0.32 0.0 0 0 721.73 711.67
  C 726.15 706.20 727.74 692.16 724.60 685.90
  A 1.55 1.55 0.0 0 0 721.69 686.36
  Z
  M 792.64 736.83
  A 1.14 1.13 20.4 0 0 794.44 736.01
  Q 794.98 729.88 791.71 724.90
  A 0.78 0.78 0.0 0 0 790.30 725.15
  C 789.34 729.44 788.52 733.85 792.64 736.83
  Z
  M 836.51 727.71
  A 1.86 1.85 -31.1 0 0 834.18 727.14
  C 827.74 730.36 825.90 739.06 823.92 745.47
  C 822.35 750.53 823.06 756.38 822.45 761.79
  A 0.58 0.57 83.6 0 0 823.21 762.40
  C 826.40 761.31 830.01 760.36 832.47 758.10
  C 838.80 752.27 839.43 743.08 838.87 734.45
  Q 838.63 730.67 836.51 727.71
  Z
  M 783.89 757.36
  C 789.02 761.51 793.58 746.13 794.00 742.68
  Q 794.07 742.10 793.49 742.05
  Q 785.73 741.27 783.35 733.92
  Q 783.14 733.29 782.80 733.86
  C 779.79 738.99 778.22 752.78 783.89 757.36
  Z"
/>
<path fill="#dd5a44" d="
  M 358.93 685.90
  C 361.59 683.26 365.29 687.43 365.95 689.91
  C 367.40 695.39 366.47 701.33 365.28 707.05
  C 363.24 716.88 358.51 724.00 350.99 730.46
  A 0.64 0.64 0.0 0 1 349.94 730.03
  Q 349.04 719.95 348.22 709.56
  C 347.52 700.68 352.78 692.01 358.93 685.90
  Z"
/>
<path fill="#dd5a44" d="
  M 721.69 686.36
  A 1.55 1.55 0.0 0 1 724.60 685.90
  C 727.74 692.16 726.15 706.20 721.73 711.67
  A 0.32 0.32 0.0 0 1 721.16 711.47
  C 721.27 703.45 720.46 694.24 721.69 686.36
  Z"
/>
<path fill="#dd5a44" d="
  M 610.17 686.19
  A 0.32 0.32 0.0 0 1 610.74 686.21
  Q 611.08 686.85 611.19 687.96
  Q 613.04 707.11 606.19 724.64
  A 0.38 0.38 0.0 0 1 605.45 724.51
  Q 605.17 706.39 609.01 688.95
  Q 609.28 687.74 610.17 686.19
  Z"
/>
<path fill="#f4e1d5" d="
  M 429.09 750.69
  C 423.80 760.80 418.33 770.99 404.79 769.22
  C 397.50 768.26 393.20 763.46 391.21 756.36
  C 388.01 744.90 390.42 727.60 402.55 722.05
  C 408.98 719.10 416.36 721.42 417.19 729.08
  C 418.20 738.43 411.37 747.06 406.13 753.57
  A 1.45 1.43 -26.5 0 0 405.81 754.50
  Q 405.85 759.41 409.73 762.25
  A 1.34 1.30 56.3 0 0 410.80 762.48
  C 419.53 760.63 428.70 742.08 431.81 734.05
  Q 432.78 731.55 433.19 726.87
  Q 433.24 726.36 433.61 726.00
  C 437.42 722.27 443.89 727.54 446.22 730.68
  C 448.23 733.36 447.96 737.74 448.35 740.91
  Q 448.60 742.93 449.75 741.25
  C 453.12 736.33 466.30 716.17 473.91 725.28
  C 477.58 729.67 477.92 734.14 476.79 740.06
  C 475.88 744.88 472.84 755.39 475.19 759.66
  A 0.87 0.86 -36.4 0 0 476.54 759.86
  C 483.27 753.45 489.88 740.78 492.33 731.87
  C 495.33 720.97 503.77 714.65 515.26 716.02
  C 534.10 718.28 534.20 745.65 533.73 759.08
  C 533.66 761.24 534.48 763.67 534.23 765.75
  Q 533.65 770.43 532.99 775.10
  A 1.12 1.10 -62.9 0 0 533.27 776.00
  C 535.28 778.17 538.17 780.43 537.31 783.88
  Q 537.18 784.38 536.67 784.31
  Q 533.63 783.89 532.64 780.90
  A 0.66 0.65 -47.5 0 0 531.38 780.96
  C 529.91 786.94 527.82 793.81 523.57 797.93
  C 519.09 802.26 510.90 805.00 505.49 800.83
  Q 501.65 797.87 501.77 792.50
  Q 502.07 778.96 514.53 772.11
  Q 514.90 771.91 514.94 771.49
  L 516.59 753.30
  Q 516.64 752.74 516.22 753.10
  C 512.34 756.35 507.57 759.15 502.37 758.06
  Q 493.55 756.20 491.47 746.54
  Q 491.36 746.04 491.16 746.52
  Q 486.94 756.64 479.89 764.85
  C 471.17 774.99 461.72 768.59 461.82 756.99
  Q 461.90 747.62 461.40 738.31
  A 1.23 1.23 0.0 0 0 459.67 737.25
  C 457.22 738.35 450.06 748.79 448.17 751.44
  C 443.79 757.60 448.46 769.56 438.34 772.95
  Q 437.92 773.09 437.50 772.94
  L 431.08 770.50
  A 2.99 2.99 0.0 0 1 429.22 768.42
  C 427.77 762.62 429.02 756.69 429.42 750.79
  Q 429.48 749.95 429.09 750.69
  Z
  M 515.86 721.38
  A 1.39 1.38 57.2 0 0 514.46 721.07
  C 506.87 723.74 506.62 738.68 505.91 744.91
  C 504.56 756.62 511.66 752.53 515.50 747.25
  C 519.25 742.09 520.94 726.24 515.86 721.38
  Z
  M 409.46 725.02
  C 404.58 724.51 405.00 742.00 405.04 744.92
  Q 405.05 745.49 405.45 745.08
  C 410.16 740.31 414.18 731.41 410.21 725.47
  Q 409.94 725.07 409.46 725.02
  Z
  M 508.97 796.89
  C 513.99 797.33 514.06 781.24 513.93 778.28
  A 0.34 0.34 0.0 0 0 513.37 778.04
  Q 505.76 784.72 506.87 794.83
  A 2.32 2.31 -0.4 0 0 508.97 796.89
  Z"
/>
<path fill="#dd5a44" d="
  M 515.86 721.38
  C 520.94 726.24 519.25 742.09 515.50 747.25
  C 511.66 752.53 504.56 756.62 505.91 744.91
  C 506.62 738.68 506.87 723.74 514.46 721.07
  A 1.39 1.38 57.2 0 1 515.86 721.38
  Z"
/>
<path fill="#dd5a44" d="
  M 792.64 736.83
  C 788.52 733.85 789.34 729.44 790.30 725.15
  A 0.78 0.78 0.0 0 1 791.71 724.90
  Q 794.98 729.88 794.44 736.01
  A 1.14 1.13 20.4 0 1 792.64 736.83
  Z"
/>
<path fill="#dd5a44" d="
  M 405.04 744.92
  C 405.00 742.00 404.58 724.51 409.46 725.02
  Q 409.94 725.07 410.21 725.47
  C 414.18 731.41 410.16 740.31 405.45 745.08
  Q 405.05 745.49 405.04 744.92
  Z"
/>
<path fill="#dd5a44" d="
  M 552.17 757.49
  A 1.73 1.73 0.0 0 1 550.56 756.47
  C 546.47 747.42 551.35 733.89 557.47 727.51
  C 559.50 725.38 562.17 726.59 563.75 728.71
  C 570.21 737.42 564.80 745.17 560.03 752.88
  Q 557.23 757.39 552.17 757.49
  Z"
/>
<path fill="#dd5a44" d="
  M 836.51 727.71
  Q 838.63 730.67 838.87 734.45
  C 839.43 743.08 838.80 752.27 832.47 758.10
  C 830.01 760.36 826.40 761.31 823.21 762.40
  A 0.58 0.57 83.6 0 1 822.45 761.79
  C 823.06 756.38 822.35 750.53 823.92 745.47
  C 825.90 739.06 827.74 730.36 834.18 727.14
  A 1.86 1.85 -31.1 0 1 836.51 727.71
  Z"
/>
<path fill="#dd5a44" d="
  M 365.81 730.56
  C 367.46 731.60 370.77 734.71 370.74 737.01
  Q 370.49 753.33 360.83 767.65
  Q 360.24 768.52 359.77 767.58
  Q 353.21 754.48 351.61 739.94
  Q 351.55 739.46 351.84 739.08
  C 353.41 736.99 362.40 728.43 365.81 730.56
  Z"
/>
<path fill="#dd5a44" d="
  M 783.89 757.36
  C 778.22 752.78 779.79 738.99 782.80 733.86
  Q 783.14 733.29 783.35 733.92
  Q 785.73 741.27 793.49 742.05
  Q 794.07 742.10 794.00 742.68
  C 793.58 746.13 789.02 761.51 783.89 757.36
  Z"
/>
<path fill="#dd5a44" d="
  M 508.97 796.89
  A 2.32 2.31 -0.4 0 1 506.87 794.83
  Q 505.76 784.72 513.37 778.04
  A 0.34 0.34 0.0 0 1 513.93 778.28
  C 514.06 781.24 513.99 797.33 508.97 796.89
  Z"
/>
</svg>
